# xmcd CD database file
#
# Track frame offsets:
#	150
#	20505
#	40148
#	57713
#	73590
#	89533
#	105957
#	123613
#	148958
#	166288
#	185156
#	198656
#	215005
#	233213
#	248982
#	266538
#	283728
#
# Disc length: 3988 seconds
#
# Revision: 0
# Processed by: cddbd v1.5.2PL0 Copyright (c) Steve Scherf et al.
# Submitted via: CDex 1.51
#
DISCID=110f9211
DTITLE=Totally Coutry - Totally Country
DYEAR=1999
DGENRE=Country
TTITLE0=Only in America
TTITLE1=She coudn´t shange me
TTITLE2=With me
TTITLE3=Without you
TTITLE4=One night like this
TTITLE5=I lost it
TTITLE6=Angels in waiting
TTITLE7=Born to fly 
TTITLE8=Austin
TTITLE9=One voice
TTITLE10=Where the Blacktop ends
TTITLE11=One more day
TTITLE12=It´s a great day to be alive
TTITLE13=I want you to want me
TTITLE14=The little girl
TTITLE15=Buy me a rose
TTITLE16=There you are
EXTD=YEAR: 1999
EXTT0=
EXTT1=
EXTT2=
EXTT3=
EXTT4=
EXTT5=
EXTT6=
EXTT7=
EXTT8=
EXTT9=
EXTT10=
EXTT11=
EXTT12=
EXTT13=
EXTT14=
EXTT15=
EXTT16=
PLAYORDER=
